<?xml version="1.0" standalone="no"?>
<!DOCTYPE svg PUBLIC "-//W3C//DTD SVG 20010904//EN"
 "http://www.w3.org/TR/2001/REC-SVG-20010904/DTD/svg10.dtd">
<svg version="1.0" xmlns="http://www.w3.org/2000/svg"
 width="1500.000000pt" height="1500.000000pt" viewBox="0 0 1500.000000 1500.000000"
 preserveAspectRatio="xMidYMid meet">

<g transform="translate(0.000000,1500.000000) scale(0.100000,-0.100000)"
fill="#000000" stroke="none">
<path d="M7040 14989 c-1559 -97 -3039 -672 -4255 -1653 -365 -295 -826 -756
-1121 -1121 -919 -1140 -1480 -2502 -1628 -3960 -49 -477 -49 -1033 0 -1510
158 -1556 782 -2993 1813 -4180 134 -155 561 -582 716 -716 1187 -1031 2624
-1655 4180 -1813 477 -49 1033 -49 1510 0 1556 158 2993 782 4180 1813 155
134 582 561 716 716 1102 1269 1735 2816 1839 4495 21 346 11 839 -26 1195
-158 1556 -782 2993 -1813 4180 -134 155 -561 582 -716 716 -1269 1102 -2816
1735 -4495 1839 -187 11 -712 11 -900 -1z m420 -2659 c0 -2285 2 -2581 15
-2586 13 -5 15 -139 15 -1120 l0 -1114 -1114 0 c-981 0 -1115 2 -1120 15 -5
13 -301 15 -2586 15 l-2580 0 0 43 c1 102 21 466 35 617 141 1508 752 2947
1750 4115 440 515 965 979 1540 1360 1182 784 2537 1205 3968 1233 l77 2 0
-2580z m370 2570 c1090 -53 2079 -315 3035 -804 1144 -586 2100 -1440 2810
-2511 676 -1019 1089 -2185 1199 -3385 14 -150 36 -530 36 -622 l0 -38 -2580
0 c-2285 0 -2581 -2 -2586 -15 -5 -13 -139 -15 -1120 -15 l-1114 0 0 1114 c0
981 2 1115 15 1120 13 5 15 301 15 2586 l0 2580 43 0 c23 0 134 -5 247 -10z
m-340 -8524 c0 -981 -2 -1115 -15 -1120 -13 -5 -15 -301 -15 -2586 l0 -2580
-42 0 c-103 1 -467 21 -618 35 -1190 111 -2351 519 -3355 1180 -849 558 -1560
1265 -2120 2110 -676 1019 -1088 2181 -1200 3385 -14 151 -34 515 -35 618 l0
42 2580 0 c2285 0 2581 2 2586 15 5 13 139 15 1120 15 l1114 0 0 -1114z m2254
1099 c5 -13 301 -15 2586 -15 l2580 0 0 -42 c-1 -103 -21 -467 -35 -618 -207
-2227 -1432 -4255 -3320 -5495 -1004 -661 -2170 -1070 -3355 -1179 -150 -14
-530 -36 -622 -36 l-38 0 0 2580 c0 2285 -2 2581 -15 2586 -13 5 -15 139 -15
1120 l0 1114 1114 0 c981 0 1115 -2 1120 -15z"/>
</g>
</svg>
